<svg width="56" height="61" viewBox="0 0 56 61" fill="none" xmlns="http://www.w3.org/2000/svg">
<path d="M43.8931 0C40.8574 0.00342256 37.9468 1.2107 35.8001 3.35696C33.6535 5.50323 32.4459 8.41321 32.4426 11.4485V19.0805H22.9008V11.4485C22.8852 8.42238 21.672 5.52549 19.5264 3.39115C17.3807 1.25681 14.4771 0.0586798 11.4504 0.0586798C8.42367 0.0586798 5.52007 1.25681 3.3744 3.39115C1.22873 5.52549 0.0155123 8.42238 0 11.4485V49.6102C0.0155123 52.6363 1.22873 55.5331 3.3744 57.6674C5.52007 59.8017 8.42367 61 11.4504 61C14.4771 61 17.3807 59.8017 19.5264 57.6674C21.672 55.5331 22.8852 52.6363 22.9008 49.6102V45.794L19.0839 43.8859V49.6102C19.0839 51.1198 18.6362 52.5954 17.7974 53.8506C16.9586 55.1057 15.7663 56.0838 14.3714 56.6616C12.9765 57.2391 11.4417 57.3904 9.96084 57.0959C8.48007 56.8012 7.11987 56.0745 6.0523 55.007C4.98472 53.9396 4.25769 52.5795 3.96317 51.0991C3.66868 49.6184 3.81988 48.0838 4.3977 46.6891C4.97552 45.2947 5.954 44.1024 7.20941 43.2639C8.46479 42.4253 9.94072 41.9777 11.4505 41.9777H43.8931C45.403 41.9777 46.8789 42.4253 48.134 43.2642C49.3895 44.1027 50.3679 45.2947 50.9457 46.6894C51.5235 48.0841 51.6747 49.6186 51.38 51.0991C51.0855 52.5798 50.3586 53.9396 49.2908 55.007C48.2234 56.0745 46.8632 56.8015 45.3822 57.0959C43.9015 57.3904 42.3666 57.2391 40.9716 56.6616C39.577 56.0838 38.3847 55.1057 37.5458 53.8506C36.7073 52.5954 36.2594 51.1198 36.2594 49.6102V45.794L32.4426 43.8859V49.6102C32.4582 52.6363 33.6712 55.5331 35.817 57.6674C37.9627 59.8017 40.8664 61 43.8928 61C46.9195 61 49.8232 59.8017 51.9689 57.6674C54.1146 55.5331 55.3277 52.6363 55.3433 49.6102V11.4485C55.34 8.41327 54.1324 5.50332 51.9858 3.35708C49.8394 1.21082 46.9288 0.00350214 43.8931 0ZM36.2594 11.4485C36.2594 9.93895 36.707 8.46328 37.5458 7.20812C38.3847 5.95295 39.5767 4.97465 40.9716 4.39692C42.3663 3.81922 43.9012 3.66802 45.3822 3.96248C46.8629 4.25694 48.223 4.98382 49.2908 6.05121C50.3586 7.11861 51.0855 8.47856 51.38 9.9591C51.6747 11.4396 51.5235 12.9743 50.9457 14.3689C50.3679 15.7635 49.3895 16.9556 48.1343 17.7942C46.8789 18.6329 45.403 19.0805 43.8931 19.0805H36.2594V11.4485ZM11.4505 3.81618C13.4744 3.81856 15.4146 4.62346 16.8456 6.05428C18.2767 7.4851 19.0816 9.42504 19.0839 11.4485V19.0805H11.4505C10.444 19.0869 9.44625 18.8941 8.51457 18.5134C7.58288 18.1326 6.73569 17.5715 6.02177 16.8621C5.30782 16.1528 4.74122 15.3093 4.3546 14.3802C3.96798 13.4511 3.76893 12.4547 3.76893 11.4484C3.76893 10.442 3.96798 9.44565 4.3546 8.51652C4.74122 7.5874 5.30782 6.7439 6.02177 6.03455C6.73569 5.32523 7.58288 4.76404 8.51457 4.38332C9.44625 4.0026 10.444 3.80986 11.4505 3.81618ZM43.8931 38.1609H11.4505C8.63223 38.1585 5.91286 39.1995 3.81684 41.0832V19.9743C5.91289 21.8579 8.63226 22.8989 11.4505 22.8964H43.8931C46.7113 22.8988 49.4307 21.8579 51.5265 19.9743V41.0832C49.4307 39.1995 46.7113 38.1585 43.8931 38.1609Z" fill="black"/>
</svg>
